<?xml version="1.0" encoding="UTF-8"?><svg id="Layer_1" xmlns="http://www.w3.org/2000/svg" xmlns:xlink="http://www.w3.org/1999/xlink" viewBox="0 0 1549.79 857.98"><defs><radialGradient id="radial-gradient" cx="778.39" cy="284.9" fx="778.39" fy="284.9" r="176.62" gradientTransform="translate(.06 180.62) rotate(.04) scale(1 .36)" gradientUnits="userSpaceOnUse"><stop offset=".39" stop-color="#CCDD83"/><stop offset=".47" stop-color="#c3d397"/><stop offset=".53" stop-color="#bac990"/><stop offset=".58" stop-color="#aaba84"/><stop offset=".63" stop-color="#95a373"/><stop offset=".67" stop-color="#79875d"/><stop offset=".7" stop-color="#687550"/></radialGradient><radialGradient id="radial-gradient-2" cx="1215.77" cy="118.39" fx="1215.77" fy="118.39" r="440.3" gradientTransform="translate(0 28.61) scale(1 .76)" gradientUnits="userSpaceOnUse"><stop offset="0" stop-color="#ccdd83"/><stop offset=".18" stop-color="#c7d880"/><stop offset=".38" stop-color="#bbcb78"/><stop offset=".58" stop-color="#a6b66b"/><stop offset=".78" stop-color="#889759"/><stop offset=".99" stop-color="#637142"/><stop offset="1" stop-color="#627042"/></radialGradient><radialGradient id="radial-gradient-3" cx="1273.03" cy="118.39" fx="1273.03" fy="118.39" r="440.3" gradientTransform="translate(1606.99 28.61) rotate(-180) scale(1 -.76)" xlink:href="#radial-gradient-2"/><radialGradient id="radial-gradient-4" cx="1065.25" cy="287.83" fx="1065.25" fy="287.83" r="307.68" gradientUnits="userSpaceOnUse"><stop offset="0" stop-color="#ccdd83"/><stop offset=".19" stop-color="#c7d880"/><stop offset=".39" stop-color="#bbcb7a"/><stop offset=".59" stop-color="#a6b66f"/><stop offset=".8" stop-color="#899861"/><stop offset="1" stop-color="#687550"/></radialGradient><radialGradient id="radial-gradient-5" cx="3419.4" cy="287.84" fx="3419.4" fy="287.84" r="257.85" gradientTransform="translate(3903.94) rotate(-180) scale(1 -1)" xlink:href="#radial-gradient-4"/><radialGradient id="radial-gradient-6" cx="731.33" cy="83.55" fx="731.33" fy="83.55" r="191.08" gradientTransform="translate(1009.75 -595.03) rotate(107.92) scale(1 .67)" gradientUnits="userSpaceOnUse"><stop offset=".37" stop-color="#ccdd83"/><stop offset=".47" stop-color="#c7d880"/><stop offset=".57" stop-color="#bbcb78"/><stop offset=".68" stop-color="#a6b66b"/><stop offset=".79" stop-color="#889759"/><stop offset=".9" stop-color="#637142"/><stop offset=".9" stop-color="#627042"/></radialGradient><radialGradient id="radial-gradient-7" cx="760.97" cy="275.03" fx="760.97" fy="275.03" r="201.64" gradientUnits="userSpaceOnUse"><stop offset=".07" stop-color="#ccdd83"/><stop offset=".48" stop-color="#99a964"/><stop offset=".9" stop-color="#627042"/></radialGradient><radialGradient id="radial-gradient-8" cx="781.67" cy="416.94" fx="781.67" fy="416.94" r="198.1" gradientTransform="translate(1034.94 -349.76) rotate(93.76) scale(1 .49)" gradientUnits="userSpaceOnUse"><stop offset="0" stop-color="#788c4d"/><stop offset=".2" stop-color="#6e8146"/><stop offset=".54" stop-color="#566436"/><stop offset="1" stop-color="#2e351c"/><stop offset="1" stop-color="#2e351c"/></radialGradient><radialGradient id="radial-gradient-9" cx="824.81" cy="28.97" fx="824.81" fy="28.97" r="267.32" gradientTransform="translate(551.44 -749.43) rotate(69.39) scale(1 .63)" gradientUnits="userSpaceOnUse"><stop offset="0" stop-color="#788c4d"/><stop offset=".27" stop-color="#75894b"/><stop offset=".47" stop-color="#6d7f45"/><stop offset=".65" stop-color="#5f6f3c"/><stop offset=".81" stop-color="#4c5830"/><stop offset=".97" stop-color="#333b1f"/><stop offset="1" stop-color="#2e351c"/></radialGradient><linearGradient id="linear-gradient" x1="774.75" y1="348.6" x2="795.65" y2="348.6" gradientUnits="userSpaceOnUse"><stop offset="0" stop-color="#f3ffd1"/><stop offset=".27" stop-color="#f0fcce"/><stop offset=".44" stop-color="#e7f4c6"/><stop offset=".57" stop-color="#d9e5b9"/><stop offset=".7" stop-color="#c5d1a6"/><stop offset=".81" stop-color="#aab78d"/><stop offset=".91" stop-color="#8a976f"/><stop offset="1" stop-color="#687550"/></linearGradient><linearGradient id="linear-gradient-2" x1="733.8" y1="237.8" x2="812.19" y2="469.24" xlink:href="#linear-gradient"/><linearGradient id="linear-gradient-3" x1="736.69" y1="268.94" x2="812.98" y2="448.91" xlink:href="#linear-gradient"/><linearGradient id="linear-gradient-4" x1="793.12" y1="40.96" x2="793.12" y2="187.85" xlink:href="#linear-gradient"/><linearGradient id="linear-gradient-5" x1="774.66" y1="123.61" x2="881.41" y2="123.61" gradientUnits="userSpaceOnUse"><stop offset="0" stop-color="#f6ffd2"/><stop offset=".26" stop-color="#f3fccf"/><stop offset=".43" stop-color="#eaf4c7"/><stop offset=".56" stop-color="#dce6b9"/><stop offset=".68" stop-color="#c8d2a5"/><stop offset=".79" stop-color="#adb88b"/><stop offset=".89" stop-color="#8c996b"/><stop offset=".99" stop-color="#677446"/><stop offset="1" stop-color="#627042"/></linearGradient><linearGradient id="linear-gradient-6" x1="707.76" y1="112.94" x2="775.49" y2="165.68" xlink:href="#linear-gradient-5"/><linearGradient id="linear-gradient-7" x1="756.38" y1="9.91" x2="756.38" y2="277.52" xlink:href="#linear-gradient"/><linearGradient id="linear-gradient-8" x1="671.06" y1="227.49" x2="896.22" y2="227.49" xlink:href="#linear-gradient-5"/></defs><path d="M1441.19,464.99c-43.72,5.3-86.36,3.32-215.32-48.44-133.31-53.51-146.26-68.61-370.38-94.96,0,0,1.28-2.82,4.33-7.31h-169.91c3.04,4.49,4.33,7.31,4.33,7.31-224.11,26.34-237.06,41.45-370.38,94.96-128.96,51.77-171.6,53.74-215.32,48.44-.64-.07-.52-1.05.12-1.1,93.03-7.43,112.5-24.9,263.51-93.1,153.44-69.28,246.02-73.36,295.24-81.11,4.42,3.69,8.22,7.34,11.43,10.78h192.06c3.21-3.44,7.01-7.08,11.43-10.78,49.21,7.75,141.8,11.83,295.24,81.11,151.02,68.2,170.48,85.67,263.51,93.1.64.05.76,1.03.12,1.1Z" fill="url(#radial-gradient)" stroke-width="0"/><path d="M870.89,300.46c3.21-3.44,7.01-7.08,11.43-10.78,49.21,7.75,141.8,11.83,295.24,81.11,151.02,68.2,170.48,85.67,263.51,93.1.64.05.76,1.03.12,1.1-43.72,5.3-86.36,3.32-215.32-48.44-133.31-53.51-146.26-68.61-370.38-94.96,0,0,1.28-2.82,4.33-7.31" fill="url(#radial-gradient-2)" stroke-width="0"/><path d="M678.84,300.46c-3.21-3.44-7.01-7.08-11.43-10.78-49.21,7.75-141.8,11.83-295.24,81.11-151.02,68.2-170.48,85.67-263.51,93.1-.64.05-.76,1.03-.12,1.1,43.72,5.3,86.36,3.32,215.32-48.44,133.31-53.51,146.26-68.61,370.38-94.96,0,0-1.28-2.82-4.33-7.31" fill="url(#radial-gradient-3)" stroke-width="0"/><path d="M1411.46,467.22c-13.47,0-28.1-1.33-45.89-4.81-34.55-6.75-78.93-21.25-139.67-45.63-17.18-6.9-32.63-13.26-46.25-18.88-93.77-38.65-128.86-53.12-324.06-76.06l-.33-.04.14-.3s1.33-2.89,4.34-7.35v-.02s11.09-13.82,11.09-13.82c3.47-3.72,7.32-7.35,11.46-10.81l.08-.07.11.02c6.9,1.09,14.51,2.08,23.32,3.23,52.38,6.85,140.04,18.32,271.98,77.89,28.76,12.99,52.47,24.01,73.39,33.73,88.17,40.97,114.77,53.34,190.05,59.35.49.03.76.46.77.84,0,.4-.25.7-.64.74-9.87,1.2-19.53,1.98-29.88,1.98ZM855.97,321.41c194.98,22.93,230.09,37.4,323.86,76.05,13.63,5.62,29.07,11.98,46.25,18.88,60.71,24.37,105.06,38.86,139.58,45.61,31.41,6.14,52.94,5.57,75.62,2.82.19-.02.22-.17.22-.26,0-.14-.09-.35-.32-.37-75.36-6.02-101.99-18.39-190.21-59.39-20.92-9.72-44.62-20.74-73.38-33.73-131.88-59.55-219.5-71.01-271.85-77.86-8.77-1.15-16.34-2.14-23.22-3.22-4.1,3.43-7.91,7.02-11.33,10.68l-11.06,13.8c-2.43,3.59-3.75,6.14-4.16,6.97Z" fill="url(#radial-gradient-4)" stroke-width="0"/><path d="M108.46,465.26c-.39-.04-.65-.34-.64-.74,0-.38.28-.8.77-.84,75.27-6.01,101.88-18.38,190.05-59.35,20.92-9.72,44.62-20.74,73.39-33.73,131.95-59.57,219.61-71.04,271.98-77.89,8.81-1.15,16.42-2.15,23.32-3.23l.11-.02.08.07c4.14,3.46,8,7.09,11.46,10.81l11.07,13.82v.02c3.03,4.46,4.34,7.32,4.36,7.35l.14.3-.33.04c-195.2,22.94-230.29,37.41-324.06,76.06-13.63,5.62-29.07,11.98-46.25,18.88-60.74,24.38-105.12,38.88-139.67,45.63-17.79,3.48-32.43,4.81-45.89,4.81-10.35,0-20-.78-29.88-1.98ZM689.66,314.45l-11.06-13.8c-3.42-3.66-7.23-7.26-11.33-10.68-6.88,1.08-14.46,2.07-23.22,3.22-52.35,6.85-139.97,18.31-271.85,77.86-28.76,12.99-52.47,24.01-73.38,33.73-88.22,41-114.85,53.38-190.21,59.39-.23.02-.32.23-.32.37,0,.09.02.24.22.26,22.68,2.75,44.21,3.32,75.62-2.82,34.52-6.75,78.88-21.24,139.58-45.61,17.18-6.89,32.62-13.26,46.25-18.88,93.77-38.65,128.87-53.13,323.86-76.05-.41-.84-1.72-3.38-4.16-6.97Z" fill="url(#radial-gradient-5)" stroke-width="0"/><path d="M774.75.09l-106.56,247.04,88.8-39.26,17.76,17.77v-59.7l-6.11-6.11-30.55,13.51,36.66-85.54V.09Z" fill="url(#radial-gradient-6)" stroke-width="0"/><polygon points="774.75 252.87 774.75 464.99 754.03 232.17 774.74 252.88 774.75 252.87" fill="url(#radial-gradient-7)" stroke-width="0"/><polygon points="795.47 232.16 774.76 465.04 774.75 464.99 774.75 252.87 795.47 232.16" fill="url(#radial-gradient-8)" stroke-width="0"/><polygon points="881.32 247.13 792.51 207.87 774.75 225.64 774.75 165.94 780.86 159.83 811.42 173.33 774.75 87.79 774.75 .09 881.32 247.13" fill="url(#radial-gradient-9)" stroke-width="0"/><path d="M774.83,465.1s-.02,0-.02,0c-.05-.01-.07-.06-.06-.11l20.63-232.5-20.48,20.46s-.09.03-.13,0-.03-.09,0-.13l20.72-20.71s.07-.03.11-.01c.04.02.05.06.04.1l-20.72,232.83s-.05.06-.08.06Z" fill="url(#linear-gradient)" stroke-width="0"/><path d="M774.84,465.1s-.07-.02-.08-.06l-20.72-232.83s0-.08.04-.1c.03-.02.08-.02.11.01l20.72,20.71s.04.09,0,.13-.09.04-.13,0l-20.48-20.46,20.63,232.5s-.01.1-.06.11c0,0-.02,0-.02,0Z" fill="url(#linear-gradient-2)" stroke-width="0"/><path d="M774.83,465.08s-.09-.04-.09-.09v-212.12s.04-.09.09-.09.09.04.09.09v212.12s-.04.09-.09.09Z" fill="url(#linear-gradient-3)" stroke-width="0"/><path d="M774.75,225.72s-.09-.04-.09-.09v-59.73l6.17-6.18.06.02,30.35,13.42-36.58-85.35V.09s.04-.09.09-.09.09.04.09.09v87.68l36.74,85.73-.21-.09-30.5-13.48-6.04,6.04v59.66s-.04.09-.09.09Z" fill="url(#linear-gradient-4)" stroke-width="0"/><path d="M881.32,247.22s-.07-.02-.08-.05L774.67.12s0-.1.05-.12c.05-.02.1,0,.12.05l106.57,247.04s0,.1-.05.12c-.01,0-.02,0-.04,0Z" fill="url(#linear-gradient-5)" stroke-width="0"/><path d="M668.18,247.22s-.02,0-.04,0c-.04-.02-.07-.07-.05-.12L774.67.05s.07-.06.12-.05c.04.02.07.07.05.12l-106.57,247.04s-.05.05-.08.05Z" fill="url(#linear-gradient-6)" stroke-width="0"/><path d="M774.75,225.72s-.09-.04-.09-.09v-59.66l-6.04-6.04-30.7,13.57.09-.21,36.65-85.53V.09s.04-.09.09-.09.09.04.09.09v87.74s-36.58,85.34-36.58,85.34l30.4-13.44.04.04,6.13,6.14v59.73s-.04.09-.09.09Z" fill="url(#linear-gradient-7)" stroke-width="0"/><path d="M881.31,247.22s-.02,0-.04,0l-88.76-39.24-17.78,17.79-.06-.06-17.72-17.72-88.75,39.24s-.1,0-.12-.04c-.02-.04,0-.1.04-.12l88.86-39.29.04.04,17.7,17.7,17.74-17.75.06.02,88.81,39.26s.06.07.04.12c-.01.03-.05.05-.08.05Z" fill="url(#linear-gradient-8)" stroke-width="0"/><path d="M0,855.47l107.05-292.72h75.27l106.22,292.72h-67.32l-22.58-63.98h-111.23l-22.58,63.98H0ZM104.12,740.89h77.36l-38.89-111.23-38.47,111.23Z" fill="#fff" stroke-width="0"/><path d="M357.13,562.75h119.18c64.4,0,107.47,38.05,107.47,97.43,0,37.64-19.66,67.74-50.18,82.38l57.71,112.91h-69.42l-49.35-98.27h-52.69v98.27h-62.73v-292.72ZM419.86,615.02v89.91h51.43c29.69,0,48.51-17.56,48.51-44.74s-18.82-45.16-48.51-45.16h-51.43Z" fill="#fff" stroke-width="0"/><path d="M651.53,709.11c0-89.91,54.78-148.87,143.44-148.87,69.42,0,118.34,43.49,125.87,107.05h-63.57c-7.53-32.62-30.94-53.94-65.65-53.94-47.67,0-76.11,39.31-76.11,95.76s28.02,95.76,75.27,95.76c35.55,0,58.96-21.33,66.49-53.94h63.14c-7.11,63.56-57.71,107.05-129.22,107.05-86.98,0-139.67-58.96-139.67-148.87Z" fill="#fff" stroke-width="0"/><path d="M995.7,562.75h62.73v169.78c0,46.42,17.14,71.51,57.29,71.51s57.71-25.09,57.71-71.51v-169.78h62.72v166.43c0,83.22-41.4,128.8-120.43,128.8s-120.02-45.58-120.02-128.8v-166.43Z" fill="#fff" stroke-width="0"/><path d="M1375.83,760.13c2.09,28.44,24.67,48.09,60.63,48.09,28.85,0,50.18-12.55,50.18-35.55,0-24.67-23.83-29.69-72.76-39.31-49.35-9.2-92.83-25.09-92.83-84.47,0-51.85,43.07-88.65,109.14-88.65s112.91,35.96,113.74,92h-61.47c-2.93-24.67-21.75-41.82-52.27-41.82-26.76,0-46,11.29-46,33.87,0,23.84,23,28.85,71.5,38.05,50.18,9.2,94.51,24.25,94.09,83.22-.42,54.78-45.58,92.42-114.16,92.42-74.44,0-120.85-39.31-121.27-98.69l61.47.84Z" fill="#fff" stroke-width="0"/></svg>
