<?xml version="1.0" encoding="UTF-8"?><svg id="Layer_1" xmlns="http://www.w3.org/2000/svg" xmlns:xlink="http://www.w3.org/1999/xlink" viewBox="0 0 586.03 830.03"><defs><radialGradient id="radial-gradient" cx="173.72" cy="229.53" fx="173.72" fy="229.53" r="524.93" gradientTransform="translate(373.94 111.69) rotate(107.92) scale(1 .67)" gradientUnits="userSpaceOnUse"><stop offset=".37" stop-color="#ccdd83"/><stop offset=".47" stop-color="#c7d880"/><stop offset=".57" stop-color="#bbcb78"/><stop offset=".68" stop-color="#a6b66b"/><stop offset=".79" stop-color="#889759"/><stop offset=".9" stop-color="#637142"/><stop offset=".9" stop-color="#627042"/></radialGradient><radialGradient id="radial-gradient-2" cx="255.15" cy="673.14" fx="255.15" fy="673.14" r="170.55" gradientUnits="userSpaceOnUse"><stop offset=".07" stop-color="#ccdd83"/><stop offset=".48" stop-color="#99a964"/><stop offset=".9" stop-color="#627042"/></radialGradient><radialGradient id="radial-gradient-3" cx="312.02" cy="790.18" fx="312.02" fy="790.18" r="217.27" gradientTransform="translate(715.26 504.02) rotate(93.76) scale(1 .49)" gradientUnits="userSpaceOnUse"><stop offset="0" stop-color="#788c4d"/><stop offset=".2" stop-color="#6e8146"/><stop offset=".54" stop-color="#566436"/><stop offset="1" stop-color="#2e351c"/><stop offset="1" stop-color="#2e351c"/></radialGradient><radialGradient id="radial-gradient-4" cx="430.54" cy="79.58" fx="430.54" fy="79.58" r="734.38" gradientTransform="translate(325.57 -340.92) rotate(69.39) scale(1 .63)" gradientUnits="userSpaceOnUse"><stop offset="0" stop-color="#788c4d"/><stop offset=".27" stop-color="#75894b"/><stop offset=".47" stop-color="#6d7f45"/><stop offset=".65" stop-color="#5f6f3c"/><stop offset=".81" stop-color="#4c5830"/><stop offset=".97" stop-color="#333b1f"/><stop offset="1" stop-color="#2e351c"/></radialGradient><linearGradient id="linear-gradient" x1="293" y1="733.82" x2="350.42" y2="733.82" gradientUnits="userSpaceOnUse"><stop offset="0" stop-color="#f3ffd1"/><stop offset=".27" stop-color="#f0fcce"/><stop offset=".44" stop-color="#e7f4c6"/><stop offset=".57" stop-color="#d9e5b9"/><stop offset=".7" stop-color="#c5d1a6"/><stop offset=".81" stop-color="#aab78d"/><stop offset=".91" stop-color="#8a976f"/><stop offset="1" stop-color="#687550"/></linearGradient><linearGradient id="linear-gradient-2" x1="249.2" y1="632.19" x2="318.35" y2="836.35" xlink:href="#linear-gradient"/><linearGradient id="linear-gradient-3" x1="268.88" y1="704.73" x2="317.61" y2="819.66" xlink:href="#linear-gradient"/><linearGradient id="linear-gradient-4" x1="343.48" y1="112.54" x2="343.48" y2="516.05" xlink:href="#linear-gradient"/><linearGradient id="linear-gradient-5" x1="292.77" y1="339.57" x2="586.03" y2="339.57" gradientUnits="userSpaceOnUse"><stop offset="0" stop-color="#f6ffd2"/><stop offset=".26" stop-color="#f3fccf"/><stop offset=".43" stop-color="#eaf4c7"/><stop offset=".56" stop-color="#dce6b9"/><stop offset=".68" stop-color="#c8d2a5"/><stop offset=".79" stop-color="#adb88b"/><stop offset=".89" stop-color="#8c996b"/><stop offset=".99" stop-color="#677446"/><stop offset="1" stop-color="#627042"/></linearGradient><linearGradient id="linear-gradient-6" x1="108.99" y1="310.27" x2="295.04" y2="455.15" xlink:href="#linear-gradient-5"/><linearGradient id="linear-gradient-7" x1="242.55" y1="27.22" x2="242.55" y2="762.39" xlink:href="#linear-gradient"/><linearGradient id="linear-gradient-8" x1="8.17" y1="624.95" x2="626.71" y2="624.95" xlink:href="#linear-gradient-5"/></defs><path d="M293.01.24L.27,678.9l243.96-107.86,48.79,48.81v-163.99l-16.77-16.79-83.93,37.11,100.71-235V.24Z" fill="url(#radial-gradient)" stroke-width="0"/><polygon points="293.01 694.67 293.01 829.72 236.1 637.81 293 694.69 293.01 694.67" fill="url(#radial-gradient-2)" stroke-width="0"/><polygon points="349.95 637.77 293.05 829.86 293.01 829.72 293.01 694.67 349.95 637.77" fill="url(#radial-gradient-3)" stroke-width="0"/><polygon points="585.78 678.9 341.8 571.05 293.01 619.85 293.01 455.86 309.81 439.06 393.74 476.17 293.01 241.17 293.01 .24 585.78 678.9" fill="url(#radial-gradient-4)" stroke-width="0"/><path d="M293.24,830.03s-.05,0-.07,0c-.13-.04-.2-.17-.17-.3l56.66-191.03-56.26,56.22c-.09.09-.25.09-.34,0s-.09-.25,0-.34l56.93-56.89c.08-.08.2-.09.29-.04.1.06.14.17.11.28l-56.93,191.95c-.03.11-.13.17-.23.17Z" fill="url(#linear-gradient)" stroke-width="0"/><path d="M293.25,830.03c-.1,0-.2-.07-.23-.17l-56.93-191.95c-.03-.11.01-.22.11-.28.09-.06.22-.04.29.04l56.93,56.89c.09.09.1.25,0,.34s-.25.1-.34,0l-56.26-56.22,56.66,191.03c.04.13-.04.26-.17.3-.02,0-.05,0-.07,0Z" fill="url(#linear-gradient-2)" stroke-width="0"/><path d="M293.24,829.96c-.13,0-.24-.11-.24-.24v-135.05c0-.13.11-.24.24-.24s.24.11.24.24v135.05c0,.13-.11.24-.24.24Z" fill="url(#linear-gradient-3)" stroke-width="0"/><path d="M293.02,620.1c-.13,0-.24-.11-.24-.24v-164.1l16.96-16.99.15.07,83.37,36.86-100.48-234.48V.24c0-.13.11-.24.24-.24s.24.11.24.24v240.88l100.93,235.52-.57-.25-83.78-37.04-16.59,16.61v163.89c0,.13-.11.24-.24.24Z" fill="url(#linear-gradient-4)" stroke-width="0"/><path d="M585.78,679.15c-.09,0-.18-.06-.22-.15L292.79.34c-.05-.12,0-.27.13-.32.13-.05.27,0,.32.13l292.77,678.66c.05.12,0,.27-.13.32-.03.01-.06.02-.1.02Z" fill="url(#linear-gradient-5)" stroke-width="0"/><path d="M.24,679.15s-.06,0-.1-.02c-.12-.05-.18-.2-.13-.32L292.79.15c.05-.12.2-.18.32-.13.12.05.18.2.13.32L.47,679c-.04.09-.13.15-.22.15Z" fill="url(#linear-gradient-6)" stroke-width="0"/><path d="M293.01,620.1c-.13,0-.24-.11-.24-.24v-163.89l-16.59-16.61-84.34,37.29.24-.57,100.69-234.95V.24c0-.13.11-.24.24-.24s.24.11.24.24v240.98l-.02.05-100.46,234.43,83.52-36.93.12.12,16.84,16.87v164.1c0,.13-.11.24-.24.24Z" fill="url(#linear-gradient-7)" stroke-width="0"/><path d="M585.76,679.15s-.07,0-.1-.02l-243.83-107.79-48.84,48.86-.17-.17-48.67-48.69L.34,679.13c-.13.05-.27,0-.32-.12-.06-.12,0-.27.12-.32l244.11-107.93.12.12,48.62,48.64,48.73-48.76.15.07,243.98,107.86c.12.06.18.2.12.32-.04.09-.13.14-.22.14Z" fill="url(#linear-gradient-8)" stroke-width="0"/></svg>